<?xml version="1.0" encoding="UTF-8" standalone="no"?>
<!-- Created with Inkscape (http://www.inkscape.org/) -->

<svg
   width="170"
   height="200"
   viewBox="0 0 44.979167 52.916666"
   version="1.1"
   id="svg1"
   xml:space="preserve"
   inkscape:version="1.3 (0e150ed6c4, 2023-07-21)"
   sodipodi:docname="mà.svg"
   xmlns:inkscape="http://www.inkscape.org/namespaces/inkscape"
   xmlns:sodipodi="http://sodipodi.sourceforge.net/DTD/sodipodi-0.dtd"
   xmlns="http://www.w3.org/2000/svg"
   xmlns:svg="http://www.w3.org/2000/svg"><sodipodi:namedview
     id="namedview1"
     pagecolor="#505050"
     bordercolor="#eeeeee"
     borderopacity="1"
     inkscape:showpageshadow="0"
     inkscape:pageopacity="0"
     inkscape:pagecheckerboard="0"
     inkscape:deskcolor="#d1d1d1"
     inkscape:document-units="mm"
     showguides="true"
     inkscape:zoom="2.8284271"
     inkscape:cx="112.60676"
     inkscape:cy="117.91006"
     inkscape:window-width="1920"
     inkscape:window-height="991"
     inkscape:window-x="-9"
     inkscape:window-y="-9"
     inkscape:window-maximized="1"
     inkscape:current-layer="layer1" /><defs
     id="defs1" /><g
     inkscape:label="Layer 1"
     inkscape:groupmode="layer"
     id="layer1"><path
       id="rect1"
       style="display:inline;fill:#959595;fill-opacity:1;stroke:none;stroke-width:0.140009"
       d="M 2.4732422e-5,-3.3333333e-6 V 52.916667 H 44.979139 V -3.3333333e-6 Z M 0.3427998,0.34277173 H 44.636501 V 52.573891 H 0.3427998 Z"
       inkscape:label="Border" /><text
       xml:space="preserve"
       style="font-style:normal;font-variant:normal;font-weight:normal;font-stretch:normal;font-size:25.1824px;line-height:0.95;font-family:serif;-inkscape-font-specification:serif;text-align:center;text-anchor:middle;display:none;stroke-width:0.629561"
       x="22.409658"
       y="33.185898"
       id="text3"
       inkscape:label="shhh"><tspan
         sodipodi:role="line"
         id="tspan3"
         style="font-style:normal;font-variant:normal;font-weight:normal;font-stretch:normal;font-family:'Times New Roman';-inkscape-font-specification:'Times New Roman, ';stroke-width:0.629561"
         x="22.409658"
         y="33.185898">mà</tspan></text><g
       id="g16"
       inkscape:label="mà"><path
         style="font-size:25.1824px;line-height:0.95;font-family:'Times New Roman';-inkscape-font-specification:'Times New Roman, ';text-align:center;text-anchor:middle;stroke-width:0.629561;fill:#e51717;fill-opacity:1"
         d="m 29.811907,16.094328 h 2.742029 l 1.303385,4.242152 h -0.430363 z"
         id="path16" /><path
         id="path14"
         style="font-size:25.1824px;line-height:0.95;font-family:'Times New Roman';-inkscape-font-specification:'Times New Roman, ';text-align:center;text-anchor:middle;stroke-width:0.629561"
         d="m 33.783545,31.562813 q -1.733749,1.340275 -2.176409,1.549308 -0.663989,0.307403 -1.41405,0.307403 -1.168129,0 -1.930487,-0.799246 -0.750062,-0.799247 -0.750062,-2.102632 0,-0.823839 0.368883,-1.426347 0.50414,-0.836135 1.746045,-1.5739 1.254202,-0.737766 4.15608,-1.79523 V 25.27951 q 0,-1.684565 -0.541028,-2.311666 -0.528732,-0.627101 -1.549308,-0.627101 -0.774654,0 -1.229609,0.418067 -0.467252,0.418068 -0.467252,0.959096 l 0.02459,0.713173 q 0,0.56562 -0.295106,0.873023 -0.28281,0.307402 -0.750062,0.307402 -0.454955,0 -0.750061,-0.319698 -0.282811,-0.319699 -0.282811,-0.873023 0,-1.057464 1.082057,-1.942783 1.082056,-0.885318 3.037135,-0.885318 1.500123,0 2.459219,0.504139 0.725469,0.381179 1.06976,1.192721 0.221329,0.528732 0.221329,2.164113 v 3.824085 q 0,1.610788 0.06148,1.979671 0.06148,0.356587 0.196737,0.479548 0.147553,0.122961 0.331995,0.122961 0.196737,0 0.34429,-0.08607 0.258218,-0.159849 0.995984,-0.897615 v 0.688581 q -1.377162,1.844415 -2.631364,1.844415 -0.602509,0 -0.959095,-0.418068 -0.356587,-0.418067 -0.368883,-1.426347 z m 0,-0.799246 v -4.291336 q -1.85671,0.737765 -2.397738,1.045168 -0.971392,0.541028 -1.389459,1.13124 -0.418067,0.590213 -0.418067,1.29109 0,0.885319 0.528732,1.475531 0.528732,0.577917 1.217313,0.577917 0.934503,0 2.459219,-1.22961 z" /><path
         style="font-size:25.1824px;line-height:0.95;font-family:'Times New Roman';-inkscape-font-specification:'Times New Roman, ';text-align:center;text-anchor:middle;stroke-width:0.629561"
         d="m 11.158733,23.98842 q 1.229609,-1.22961 1.450939,-1.414051 0.553324,-0.467252 1.192721,-0.725469 0.639397,-0.258218 1.266498,-0.258218 1.057464,0 1.819821,0.614804 0.762358,0.614805 1.020576,1.782934 1.266498,-1.475531 2.13952,-1.930487 0.873023,-0.467251 1.79523,-0.467251 0.897615,0 1.586196,0.467251 0.700878,0.454956 1.106649,1.500124 0.270514,0.713173 0.270514,2.237889 v 4.84466 q 0,1.057464 0.159849,1.450939 0.122961,0.270515 0.454955,0.467252 0.331995,0.184441 1.082057,0.184441 v 0.44266 h -5.557835 v -0.44266 h 0.233626 q 0.72547,0 1.131241,-0.28281 0.28281,-0.196737 0.405771,-0.6271 0.04918,-0.209034 0.04918,-1.192722 v -4.84466 q 0,-1.377163 -0.331994,-1.942783 -0.479548,-0.78695 -1.537012,-0.78695 -0.651693,0 -1.315682,0.331994 -0.651693,0.319699 -1.586196,1.205017 l -0.02459,0.135258 0.02459,0.528732 v 5.373392 q 0,1.155833 0.122961,1.438643 0.135257,0.282811 0.491844,0.479548 0.356586,0.184441 1.217313,0.184441 v 0.44266 h -5.693092 v -0.44266 q 0.934504,0 1.278794,-0.221329 0.356587,-0.22133 0.491844,-0.663989 0.06148,-0.209034 0.06148,-1.217314 v -4.84466 q 0,-1.377163 -0.405771,-1.979672 -0.541028,-0.78695 -1.512419,-0.78695 -0.663989,0 -1.315682,0.356587 -1.020576,0.541028 -1.5739,1.217313 v 6.037382 q 0,1.106649 0.147553,1.438643 0.159849,0.331995 0.454955,0.50414 0.307403,0.159849 1.22961,0.159849 v 0.44266 H 7.4207203 v -0.44266 q 0.7746539,0 1.0820562,-0.159849 0.3074024,-0.172145 0.4672516,-0.528732 0.1598492,-0.368883 0.1598492,-1.414051 v -4.303632 q 0,-1.85671 -0.1106648,-2.397739 -0.086073,-0.405771 -0.2705141,-0.553324 -0.1844414,-0.159849 -0.5041398,-0.159849 -0.3442906,0 -0.8238383,0.184441 L 7.2362789,22.967844 10.630001,21.590682 h 0.528732 z"
         id="text14" /></g><path
       style="opacity:1;fill:#ff0000;fill-opacity:1;stroke:#5b5bff;stroke-width:1.05006;stroke-dasharray:none;stroke-opacity:1"
       d="M 2.0495012,2.0398206 42.929673,50.85789"
       id="path9"
       sodipodi:nodetypes="cc"
       inkscape:label="Stroke" /></g></svg>
