<?xml version="1.0" encoding="UTF-8" standalone="no"?>
<svg xmlns="http://www.w3.org/2000/svg" xml:space="preserve" width="372.8" height="370.7" viewBox="0 0 98.6 98.1">
  <defs>
    <clipPath id="a" clipPathUnits="userSpaceOnUse">
      <path fill="none" fill-opacity=".3" stroke-linecap="round" stroke-linejoin="round" stroke-miterlimit="6" d="M8.6.5h88v93.2h-88z" opacity="0" paint-order="stroke fill markers"/>
    </clipPath>
  </defs>
  <path fill="#e5e5e5" fill-opacity=".3" d="M8.6.5h88v93.2h-88z"/>
  <path fill="none" stroke="#303030" stroke-miterlimit="6" d="M96.6 93.7V.5h-88m0 18.6h88zm0 18.7h88zm0 18.6h88zm0 18.6h88zm88 18.7h-88V.5" opacity=".9"/>
  <g fill="none" stroke-width="2.1" clip-path="url(#a)">
    <path stroke="#3144e8" stroke-linecap="round" d="M60.6 103c30-18.6 70.2 28 88.8 56" style="mix-blend-mode:overlay" transform="translate(-52 -83.9)"/>
    <path stroke="#0d5a0c" stroke-dasharray="6.4 2.1" d="M110.7 177.6h38.7" style="mix-blend-mode:darken" transform="translate(-52 -83.9)"/>
    <path stroke="#318a29" stroke-linecap="round" d="M60.6 159c13 13.6 44.4 20.2 50.1 18.6 7-2 21.4 5.2 37.9-28.3" style="mix-blend-mode:overlay" transform="translate(-52 -83.9)"/>
    <path stroke="#c0c025" stroke-linecap="round" d="M60.6 159c63 3.7 75-18.7 88.8-56" style="mix-blend-mode:hard-light" transform="translate(-52 -83.9)"/>
    <path stroke="#8a1b0f" stroke-linecap="round" d="M60.6 103h88.8" style="mix-blend-mode:hard-light" transform="translate(-52 -83.9)"/>
  </g>
  <g stroke-miterlimit="2" font-family="sans-serif" font-size="9.9" font-weight="400" text-anchor="middle">
    <text xml:space="preserve" x="60.5" y="183.3" opacity=".9" style="-inkscape-font-specification:sans-serif;text-align:center" transform="translate(-56.4 -86.1)"><tspan x="60.5" y="183.3" style="-inkscape-font-specification:sans-serif">1</tspan></text>
    <text xml:space="preserve" x="59.6" y="164.7" opacity=".9" style="-inkscape-font-specification:sans-serif;text-align:center" transform="translate(-56.4 -86.1)"><tspan x="59.6" y="164.7" style="-inkscape-font-specification:sans-serif">2</tspan></text>
    <text xml:space="preserve" x="59.9" y="145.8" opacity=".9" style="-inkscape-font-specification:sans-serif;text-align:center" transform="translate(-56.4 -86.1)"><tspan x="59.9" y="145.8" style="-inkscape-font-specification:sans-serif">3</tspan></text>
    <text xml:space="preserve" x="59.8" y="127.1" opacity=".9" style="-inkscape-font-specification:sans-serif;text-align:center" transform="translate(-56.4 -86.1)"><tspan x="59.8" y="127.1">4</tspan></text>
    <text xml:space="preserve" x="60.2" y="108.3" opacity=".9" style="-inkscape-font-specification:sans-serif;text-align:center" transform="translate(-56.4 -86.1)"><tspan x="60.2" y="108.3">5</tspan></text>
  </g>
</svg>
